<svg width="50" height="50" viewBox="0 0 50 50" fill="none" xmlns="http://www.w3.org/2000/svg">
<path d="M25 3.125C12.9187 3.125 3.125 12.9187 3.125 25C3.125 37.0812 12.9187 46.875 25 46.875C37.0812 46.875 46.875 37.0812 46.875 25C46.875 12.9187 37.0812 3.125 25 3.125ZM5.20833 25C5.20836 21.7683 5.99974 18.5858 7.51334 15.7305C9.02695 12.8751 11.2167 10.4339 13.8914 8.62003C16.566 6.80615 19.6441 5.67481 22.8568 5.32486C26.0695 4.97491 29.319 5.41698 32.3214 6.61247C35.3239 7.80795 37.9879 9.72047 40.0808 12.1829C42.1736 14.6454 43.6317 17.5829 44.3275 20.7388C45.0233 23.8947 44.9357 27.173 44.0724 30.2872C43.2091 33.4015 41.5963 36.2569 39.375 38.6042C39.0338 36.7372 38.1505 35.0121 36.8354 33.6437C35.2875 32.0312 33.3375 31.0854 31.625 30.5521C30.5271 30.2104 29.4646 30.6 28.7292 31.0938C27.9312 31.6333 26.6187 32.2917 25 32.2917C23.3812 32.2917 22.0687 31.6333 21.2708 31.0958C20.5354 30.5979 19.4729 30.2104 18.375 30.5521C16.6625 31.0854 14.7125 32.0312 13.1646 33.6437C11.8491 35.0112 10.9651 36.7357 10.6229 38.6021C7.14034 34.9303 5.20188 30.0607 5.20833 25ZM12.5104 40.3542C12.6271 37.9792 13.5021 36.2979 14.6667 35.0875C15.8958 33.8062 17.5 33.0063 18.9958 32.5396C19.2625 32.4562 19.6604 32.5208 20.1062 32.8229C21.1 33.4937 22.8187 34.375 25 34.375C27.1812 34.375 28.9 33.4937 29.8937 32.8229C30.3396 32.5208 30.7375 32.4562 31.0042 32.5396C32.5021 33.0063 34.1021 33.8062 35.3333 35.0875C36.4979 36.2958 37.3729 37.9813 37.4896 40.3542C33.9636 43.2309 29.5507 44.7988 25 44.7917C20.4493 44.7988 16.0364 43.2309 12.5104 40.3542ZM19.7917 20.8333C19.7917 17.9479 22.0417 15.625 25 15.625C27.9583 15.625 30.2083 17.9479 30.2083 20.8333C30.2083 23.7188 27.9583 26.0417 25 26.0417C22.0417 26.0417 19.7917 23.7208 19.7917 20.8333ZM25 13.5417C24.0401 13.5333 23.0882 13.7162 22.1998 14.0797C21.3113 14.4432 20.5042 14.98 19.8254 15.6588C19.1467 16.3375 18.6099 17.1447 18.2464 18.0331C17.8829 18.9215 17.7 19.8735 17.7083 20.8333C17.7083 24.85 20.8729 28.125 25 28.125C29.1271 28.125 32.2917 24.85 32.2917 20.8333C32.2917 16.8167 29.1271 13.5417 25 13.5417Z" fill="#003370"/>
</svg>
