<svg width="152" height="126" viewBox="0 0 152 126" fill="none" xmlns="http://www.w3.org/2000/svg">
<path d="M75.4902 100.222C78.7487 100.365 80.736 104.322 81.4521 112.092C82.0251 112.378 82.8665 112.378 83.9766 112.092C83.7617 105.324 83.6543 100.526 83.6543 97.6973C83.6543 93.2214 83.7617 88.1188 83.9766 82.3896C82.8665 82.1032 82.0251 82.1032 81.4521 82.3896C80.736 90.2314 78.7487 94.1881 75.4902 94.2598C64.3542 94.6178 54.6504 94.7969 46.3789 94.7969C35.0638 94.7969 25.0557 94.6536 16.3545 94.3672L16.3545 93.8301L82.3115 67.6191L82.3115 67.082L17.6436 42.5898L17.6436 42.1064C28.4215 41.7484 38 41.5693 46.3789 41.5693C58.0163 41.5693 67.9528 41.7484 76.1885 42.1064C77.1195 42.1781 77.9251 42.6077 78.6055 43.3955C79.25 44.1475 79.7692 45.2754 80.1631 46.7793C80.5212 48.2832 80.7718 49.5544 80.915 50.5928C81.0583 51.6312 81.2015 52.9561 81.3447 54.5674C81.9176 54.8538 82.7591 54.8538 83.8691 54.5674C83.6543 48.4801 83.5469 42.2497 83.5469 35.876C83.5469 28.249 83.6543 20.9085 83.8691 13.8545C83.2246 13.568 82.3831 13.568 81.3447 13.8545C80.6286 25.7425 78.9456 31.7223 76.2959 31.7939C65.0524 32.2236 53.7552 32.4385 42.4043 32.4385C31.4115 32.4385 21.4033 32.2952 12.3799 32.0088C9.73014 31.9372 8.0472 25.9574 7.33105 14.0693C6.29264 13.7829 5.45117 13.7829 4.80664 14.0693C5.02148 21.1234 5.1289 30.5049 5.1289 42.2139L64.8555 65.0947L5.1289 87.1162C5.1289 95.8532 4.98568 103.588 4.69922 110.319C5.41536 110.677 6.0957 110.677 6.74023 110.319C7.34896 106.058 8.24414 103.283 9.42578 101.994C10.5716 100.669 13.2393 99.971 17.4287 99.8994C26.2373 99.6488 34.5625 99.5234 42.4043 99.5234C53.2539 99.5234 64.2826 99.7562 75.4902 100.222ZM75.4902 102.424C64.2109 101.958 53.1823 101.726 42.4043 101.726C34.5625 101.726 26.2373 101.851 17.4287 102.102C14.1344 102.173 12.0218 102.818 11.0908 104.035C10.124 105.217 9.37207 107.795 8.83496 111.77C6.65072 112.772 4.50228 112.736 2.38965 111.662C2.74772 103.426 2.92676 92.7201 2.92676 79.543L49.9775 61.9258L2.92675 43.7715C2.92675 34.1751 2.78352 23.5762 2.49707 11.9746C4.82454 11.2585 7.13411 11.1868 9.42578 11.7598C10.2135 19.6732 11.2699 23.6657 12.5947 23.7373C19.3265 24.0596 29.263 24.2207 42.4043 24.2207C55.9753 24.2207 67.2008 23.988 76.0811 23.5225C77.4059 23.4508 78.4622 19.4583 79.25 11.5449C81.5417 10.972 83.8512 11.0436 86.1787 11.7598C85.8922 23.3613 85.749 30.111 85.749 32.0088C85.749 34.8734 85.8922 42.8942 86.1787 56.0713C83.6722 56.9665 81.3626 56.9665 79.25 56.0713C78.4622 48.3011 77.4417 44.3802 76.1885 44.3086C67.8096 43.9505 57.873 43.7715 46.3789 43.7715C37.4271 43.7715 30.8564 43.8073 26.667 43.8789L84.5137 65.5781L84.5137 69.1768L25.4854 92.5947L46.3789 92.5947C54.6504 92.5947 64.3542 92.4157 75.4902 92.0576C77.4238 91.986 78.7129 88.0651 79.3574 80.2949C81.5059 79.3997 83.8154 79.3997 86.2861 80.2949C85.8564 91.0013 85.8564 102.119 86.2861 113.649C83.8154 114.509 81.5059 114.509 79.3574 113.649C78.6413 106.237 77.3522 102.495 75.4902 102.424Z" fill="url(#paint0_linear_215_18475)"/>
<path d="M106.38 70.624C105.655 68.6613 104.94 66.6987 104.236 64.736C103.532 62.752 102.807 60.7787 102.06 58.816C101.335 60.8 100.599 62.784 99.852 64.768C99.1267 66.7307 98.3587 68.6827 97.548 70.624H106.38ZM116.108 79.392C116.108 79.5413 116.076 79.68 116.012 79.808C115.948 79.936 115.831 80 115.66 80C114.999 80 114.348 79.9893 113.708 79.968C113.068 79.9467 112.428 79.936 111.788 79.936C110.892 79.936 110.007 79.9467 109.132 79.968C108.257 79.9893 107.383 80 106.508 80C106.401 80 106.327 79.936 106.284 79.808C106.241 79.6587 106.22 79.552 106.22 79.488C106.22 79.1893 106.359 79.0293 106.636 79.008C106.935 78.9653 107.18 78.944 107.372 78.944C107.713 78.944 108.076 78.912 108.46 78.848C108.844 78.7627 109.036 78.4853 109.036 78.016C109.036 77.824 108.94 77.44 108.748 76.864C108.556 76.288 108.321 75.648 108.044 74.944C107.767 74.24 107.5 73.5893 107.244 72.992C107.009 72.3733 106.839 71.9253 106.732 71.648H97.292C97.228 71.8187 97.1 72.1493 96.908 72.64C96.7373 73.1093 96.5347 73.6533 96.3 74.272C96.0867 74.8693 95.8733 75.4667 95.66 76.064C95.4467 76.64 95.2653 77.1413 95.116 77.568C94.988 77.9947 94.924 78.2507 94.924 78.336C94.924 78.5493 95.0413 78.7093 95.276 78.816C95.5107 78.9227 95.7987 78.9867 96.14 79.008C96.4813 79.0293 96.8013 79.04 97.1 79.04C97.42 79.0187 97.6547 79.008 97.804 79.008C97.9747 79.008 98.0707 79.072 98.092 79.2C98.1347 79.3067 98.156 79.424 98.156 79.552C98.156 79.8507 98.0067 80 97.708 80H90.988C90.8387 80 90.732 79.9467 90.668 79.84C90.6253 79.7333 90.604 79.6267 90.604 79.52C90.604 79.1787 90.7747 79.008 91.116 79.008C91.82 79.008 92.3853 78.8587 92.812 78.56C93.2387 78.24 93.6013 77.7707 93.9 77.152C94.0067 76.9173 94.1133 76.672 94.22 76.416C94.3267 76.16 94.4333 75.904 94.54 75.648C95.7773 72.4907 96.9827 69.3333 98.156 66.176C99.3507 62.9973 100.524 59.8187 101.676 56.64C102.017 56.5333 102.391 56.4373 102.796 56.352C103.201 56.2667 103.585 56.224 103.948 56.224C104.033 56.224 104.076 56.256 104.076 56.32L111.468 74.912C111.639 75.3173 111.809 75.744 111.98 76.192C112.151 76.6187 112.332 77.0453 112.524 77.472C112.801 78.0267 113.143 78.3787 113.548 78.528C113.953 78.6773 114.348 78.752 114.732 78.752C115.116 78.752 115.436 78.7733 115.692 78.816C115.969 78.8587 116.108 79.0507 116.108 79.392ZM146.22 62.368C146.22 62.5813 146.092 62.688 145.836 62.688C145.708 62.688 145.623 62.6773 145.58 62.656C145.409 62.592 145.292 62.3787 145.228 62.016C145.164 61.632 145.079 61.1947 144.972 60.704C144.887 60.192 144.695 59.7013 144.396 59.232C144.119 58.7413 143.66 58.368 143.02 58.112C142.529 57.8987 141.964 57.7813 141.324 57.76C140.705 57.7387 140.129 57.728 139.596 57.728C139.319 57.728 138.988 57.7493 138.604 57.792C138.241 57.8133 137.921 57.8987 137.644 58.048C137.367 58.1973 137.196 58.464 137.132 58.848C137.111 58.9547 137.1 59.072 137.1 59.2C137.1 59.3067 137.1 59.4133 137.1 59.52C137.1 62.3787 137.111 65.248 137.132 68.128C137.153 71.008 137.164 73.8773 137.164 76.736C137.164 77.376 137.292 77.9093 137.548 78.336C137.825 78.7413 138.316 78.944 139.02 78.944C139.255 78.944 139.479 78.944 139.692 78.944C139.927 78.9227 140.151 78.912 140.364 78.912C140.684 78.912 140.844 79.0827 140.844 79.424C140.844 79.68 140.78 79.8507 140.652 79.936C140.545 80 140.375 80.032 140.14 80.032C139.351 80.032 138.572 80.0213 137.804 80C137.036 79.9787 136.257 79.968 135.468 79.968C134.679 79.968 133.889 79.9787 133.1 80C132.311 80.0213 131.521 80.032 130.732 80.032C130.369 80.032 130.188 79.872 130.188 79.552C130.188 79.2747 130.273 79.1253 130.444 79.104C130.615 79.0827 130.796 79.072 130.988 79.072C131.927 79.072 132.641 78.9333 133.132 78.656C133.644 78.3787 133.9 77.7173 133.9 76.672C133.9 74.1333 133.9 71.5947 133.9 69.056C133.9 66.5173 133.9 63.9893 133.9 61.472C133.9 61.024 133.9 60.5867 133.9 60.16C133.921 59.712 133.911 59.2747 133.868 58.848C133.847 58.4213 133.772 58.1547 133.644 58.048C133.516 57.92 133.26 57.8347 132.876 57.792C132.492 57.728 132.108 57.696 131.724 57.696C131.361 57.696 130.988 57.696 130.604 57.696C130.177 57.696 129.74 57.7173 129.292 57.76C128.844 57.7813 128.428 57.8773 128.044 58.048C127.553 58.24 127.18 58.56 126.924 59.008C126.668 59.4347 126.487 59.904 126.38 60.416C126.273 60.9067 126.188 61.3547 126.124 61.76C126.06 62.144 125.975 62.4 125.868 62.528C125.74 62.656 125.601 62.72 125.452 62.72C125.217 62.72 125.1 62.6027 125.1 62.368C125.1 61.7707 125.111 61.1733 125.132 60.576C125.175 59.9787 125.207 59.3813 125.228 58.784C125.249 58.464 125.26 58.1333 125.26 57.792C125.26 57.4293 125.303 57.088 125.388 56.768L125.42 56.64C125.463 56.5547 125.527 56.512 125.612 56.512C126.295 56.512 126.977 56.544 127.66 56.608C128.343 56.6507 129.025 56.672 129.708 56.672H134.636C135.575 56.672 136.503 56.672 137.42 56.672C138.359 56.6507 139.287 56.64 140.204 56.64C141.143 56.6187 142.071 56.5973 142.988 56.576C143.927 56.5333 144.855 56.5013 145.772 56.48C145.836 56.544 145.889 56.64 145.932 56.768C145.975 56.8747 146.007 57.184 146.028 57.696C146.071 58.208 146.103 58.7947 146.124 59.456C146.167 60.096 146.188 60.6933 146.188 61.248C146.209 61.8027 146.22 62.176 146.22 62.368Z" fill="url(#paint1_linear_215_18475)"/>
<defs>
<linearGradient id="paint0_linear_215_18475" x1="-45.1747" y1="108" x2="85.6399" y2="2.68438" gradientUnits="userSpaceOnUse">
<stop stop-color="#FF4400"/>
<stop offset="1" stop-color="#1122BA"/>
</linearGradient>
<linearGradient id="paint1_linear_215_18475" x1="83.5083" y1="3.5" x2="-5.39713" y2="59.3414" gradientUnits="userSpaceOnUse">
<stop stop-color="#1E3A8A"/>
<stop offset="1" stop-color="#DF6C24"/>
</linearGradient>
</defs>
</svg>
